<svg width="306" height="98" viewBox="0 0 306 98" fill="none" xmlns="http://www.w3.org/2000/svg">
<path d="M57.83 29.94C55 29.94 52.7 27.63 52.7 24.77C52.7 21.91 55 19.6 57.83 19.6C60.66 19.6 62.96 21.91 62.96 24.77C62.96 27.63 60.66 29.94 57.83 29.94ZM28.92 29.94C26.09 29.94 23.79 27.63 23.79 24.77C23.79 21.91 26.09 19.6 28.92 19.6C31.75 19.6 34.05 21.91 34.05 24.77C34.05 27.63 31.75 29.94 28.92 29.94ZM43.37 0C19.42 0 0 16.31 0 36.43C0 47.41 5.84 57.29 14.99 63.97C15.72 64.5 16.2 65.36 16.2 66.35C16.2 66.67 16.13 66.97 16.05 67.28C15.32 70.03 14.15 74.42 14.1 74.63C14.01 74.98 13.87 75.33 13.87 75.7C13.87 76.5 14.52 77.16 15.32 77.16C15.63 77.16 15.89 77.04 16.15 76.89L25.65 71.36C26.36 70.95 27.12 70.69 27.95 70.69C28.39 70.69 28.82 70.76 29.23 70.88C33.66 72.16 38.44 72.88 43.39 72.88C44.19 72.88 44.98 72.86 45.77 72.82C44.83 69.98 44.31 66.99 44.31 63.89C44.31 45.54 62.02 30.66 83.87 30.66C84.66 30.66 84.86 30.69 85.64 30.72C82.36 13.31 65.01 0 43.37 0Z" fill="white"/>
<path d="M95.9 58.71C93.41 58.71 91.39 56.67 91.39 54.16C91.39 51.65 93.41 49.61 95.9 49.61C98.39 49.61 100.41 51.65 100.41 54.16C100.41 56.67 98.39 58.71 95.9 58.71ZM71.8 58.71C69.31 58.71 67.29 56.67 67.29 54.16C67.29 51.65 69.31 49.61 71.8 49.61C74.29 49.61 76.31 51.65 76.31 54.16C76.31 56.67 74.29 58.71 71.8 58.71ZM107.5 86.82C115.12 81.25 119.99 73.02 119.99 63.87C119.99 47.1 103.81 33.51 83.85 33.51C63.89 33.51 47.7 47.1 47.7 63.87C47.7 80.64 63.88 94.23 83.85 94.23C87.97 94.23 91.96 93.64 95.65 92.57C95.99 92.47 96.34 92.41 96.71 92.41C97.4 92.41 98.03 92.62 98.63 92.97L106.54 97.57C106.76 97.7 106.98 97.8 107.24 97.8C107.91 97.8 108.45 97.26 108.45 96.59C108.45 96.29 108.33 95.99 108.26 95.7C108.21 95.53 107.24 91.86 106.63 89.58C106.56 89.32 106.5 89.07 106.5 88.81C106.5 87.99 106.9 87.27 107.51 86.83" fill="white"/>
<path d="M142.52 44.33C146.77 40.93 150.65 37.22 154.17 33.2C154.96 32.52 155.79 32.18 156.64 32.18C157.49 32.18 158.24 32.46 158.89 33.03C159.54 33.6 159.87 34.31 159.87 35.15V82.58C159.87 82.98 159.76 83.29 159.53 83.52C159.3 83.75 159.05 83.86 158.77 83.86H154.52C154.18 83.86 153.9 83.75 153.67 83.52C153.44 83.29 153.33 82.98 153.33 82.58V43.23C150.72 46.01 148.23 48.36 145.85 50.29C145.74 50.4 145.62 50.46 145.51 50.46C145.34 50.46 145.17 50.29 145 49.95L142.36 45.45C142.13 45 142.19 44.63 142.53 44.35L142.52 44.33ZM143.88 27.16C143.88 26.88 143.99 26.65 144.22 26.48C149.21 22.91 153.54 18.83 157.22 14.24C157.67 13.79 158.07 13.76 158.41 14.16L161.64 17.31C162.04 17.65 162.09 18.05 161.81 18.5C157.73 23.43 153.06 27.88 147.79 31.84C147.56 31.95 147.39 32.01 147.28 32.01C147 32.01 146.77 31.87 146.6 31.59L144.05 27.68C143.94 27.45 143.88 27.28 143.88 27.17V27.16ZM168.28 61.41V55.12C168.28 53.25 169.19 52.32 171 52.32H183.83C185.36 52.32 186.48 52.62 187.19 53.21C187.9 53.81 188.25 54.95 188.25 56.65V68.46L189.19 82.99V83.16C189.19 83.39 189.11 83.56 188.94 83.67C188.77 83.78 188.57 83.84 188.34 83.84H184.01C183.44 83.84 183.13 83.59 183.07 83.07L182.14 68.62V59.02C182.14 58.51 181.86 58.25 181.29 58.25H175.25C174.91 58.25 174.68 58.32 174.57 58.46C174.46 58.6 174.4 58.84 174.4 59.18V62.92C174.4 68.47 173.1 75.19 170.49 83.06C170.32 83.57 169.98 83.83 169.47 83.83H164.79C164.51 83.83 164.29 83.73 164.15 83.53C164.01 83.33 163.99 83.09 164.11 82.81C166.89 74.08 168.28 66.94 168.28 61.39V61.41ZM165.05 17.12C165.05 16.55 165.33 16.27 165.9 16.27H169.81C170.38 16.27 170.66 16.55 170.66 17.12L170.74 27.07C170.74 27.52 170.84 27.85 171.04 28.05C171.24 28.25 171.56 28.35 172.02 28.35H175.68V13.14C175.68 12.57 175.93 12.29 176.44 12.29H180.61C181.12 12.29 181.38 12.57 181.38 13.14V28.35H185.12C185.52 28.35 185.79 28.25 185.93 28.05C186.07 27.85 186.14 27.53 186.14 27.07V17.12C186.14 16.55 186.42 16.27 186.99 16.27H190.73C191.3 16.27 191.58 16.55 191.58 17.12V31.23C191.58 32.02 191.35 32.65 190.9 33.1C190.45 33.55 189.82 33.78 189.03 33.78H167.61C166.82 33.78 166.19 33.55 165.74 33.1C165.29 32.65 165.06 32.02 165.06 31.23V17.12H165.05ZM166.41 40.5C166.64 40.27 166.92 40.16 167.26 40.16H189.61C190.01 40.16 190.32 40.27 190.55 40.5C190.78 40.73 190.89 41.04 190.89 41.44V44.75C190.89 45.15 190.78 45.46 190.55 45.69C190.32 45.92 190.01 46.03 189.61 46.03H167.26C166.92 46.03 166.64 45.92 166.41 45.69C166.18 45.46 166.07 45.15 166.07 44.75V41.44C166.07 41.04 166.18 40.73 166.41 40.5ZM202.45 63.88C199.84 58.04 197.86 51.07 196.5 42.97L192.08 40.85C191.57 40.57 191.43 40.2 191.66 39.75C193.47 36.12 195.06 31.89 196.42 27.04C197.78 22.19 198.77 17.73 199.4 13.65C199.46 13.25 199.6 12.94 199.82 12.71C200.05 12.48 200.36 12.4 200.76 12.46L204.16 12.8C205.01 12.91 205.41 13.37 205.35 14.16C204.84 17.11 204.16 20.51 203.31 24.36H219.12C219.69 24.36 219.97 24.64 219.97 25.21V29.8C219.97 30.37 219.69 30.65 219.12 30.65H215.64C215.3 37.79 214.65 43.95 213.68 49.14C212.72 54.32 211.24 59.13 209.26 63.55C212.26 69.05 216.34 74.37 221.5 79.53C221.67 79.7 221.75 79.87 221.75 80.04C221.75 80.32 221.61 80.55 221.32 80.72L217.5 84.12C217.39 84.23 217.22 84.29 216.99 84.29C216.71 84.29 216.48 84.18 216.31 83.95C211.83 79.13 208.35 74.57 205.85 70.26C203.3 74.51 199.93 79.04 195.73 83.86C195.39 84.31 194.99 84.37 194.54 84.03L190.55 80.72C190.15 80.38 190.12 79.98 190.46 79.53C195.67 74.49 199.67 69.27 202.45 63.89V63.88ZM205.85 55.89C207.95 49.32 209.22 40.9 209.68 30.64H201.77L200.75 34.12C201.94 42.68 203.64 49.93 205.85 55.88V55.89Z" fill="white"/>
<path d="M246.94 83.51C246.74 83.74 246.47 83.85 246.13 83.85H241.71C241.03 83.85 240.69 83.43 240.69 82.58V40.08C238.54 43.76 236.52 46.77 234.65 49.09C234.48 49.32 234.28 49.43 234.05 49.43C233.82 49.43 233.63 49.35 233.46 49.18L229.46 46.29C229.12 45.95 229.12 45.55 229.46 45.1C232.97 40.62 236.22 35.5 239.19 29.71C242.17 23.93 244.56 18.32 246.37 12.88C246.6 12.37 246.97 12.2 247.47 12.37L252.23 13.73C252.8 13.9 252.97 14.27 252.74 14.83C250.3 20.72 248.46 24.97 247.22 27.58V82.58C247.22 82.98 247.12 83.29 246.92 83.52L246.94 83.51ZM254.12 21.2C254.12 20.63 254.4 20.35 254.97 20.35H276.05V13.3C276.05 13.07 276.12 12.87 276.26 12.7C276.4 12.53 276.56 12.45 276.73 12.45H282.17C282.34 12.45 282.5 12.53 282.64 12.7C282.78 12.87 282.85 13.07 282.85 13.3V20.35H304.27C304.84 20.35 305.12 20.63 305.12 21.2V25.7C305.12 26.27 304.84 26.55 304.27 26.55H254.97C254.4 26.55 254.12 26.27 254.12 25.7V21.2ZM257.78 61.41C257.78 60.05 258.15 59 258.88 58.26C259.61 57.52 260.67 57.16 262.03 57.16H295.86C297.22 57.16 298.27 57.53 299.01 58.26C299.75 59 300.11 60.05 300.11 61.41V79.01C300.11 80.37 299.74 81.42 299.01 82.16C298.27 82.9 297.22 83.26 295.86 83.26H262.03C260.67 83.26 259.62 82.89 258.88 82.16C258.14 81.42 257.78 80.37 257.78 79.01V61.41ZM258.97 33.53C258.97 32.96 259.25 32.68 259.82 32.68H298.07C298.64 32.68 298.92 32.96 298.92 33.53V37.7C298.92 38.27 298.64 38.55 298.07 38.55H259.82C259.25 38.55 258.97 38.27 258.97 37.7V33.53ZM258.97 45.68C258.97 45.11 259.25 44.83 259.82 44.83H298.07C298.64 44.83 298.92 45.11 298.92 45.68V49.85C298.92 50.42 298.64 50.7 298.07 50.7H259.82C259.25 50.7 258.97 50.42 258.97 49.85V45.68ZM265.18 77.13H292.64C292.92 77.13 293.15 77.05 293.32 76.88C293.49 76.71 293.57 76.51 293.57 76.28V64.04C293.57 63.81 293.49 63.61 293.32 63.44C293.15 63.27 292.92 63.19 292.64 63.19H265.27C264.99 63.19 264.76 63.27 264.59 63.44C264.42 63.61 264.34 63.81 264.34 64.04V76.28C264.34 76.85 264.62 77.13 265.19 77.13H265.18Z" fill="white"/>
</svg>